<svg width="32" height="47" viewBox="0 0 32 47" fill="none"
    xmlns="http://www.w3.org/2000/svg">
    <path d="M26.7125 8.28752L21.7125 3.28752C21.522 3.10179 21.266 2.99852 21 3.00002H11C10.4696 3.00002 9.96086 3.21073 9.58579 3.5858C9.21071 3.96088 9 4.46958 9 5.00002V7.00002H7C6.46957 7.00002 5.96086 7.21073 5.58579 7.5858C5.21071 7.96088 5 8.46958 5 9.00002V27C5 27.5305 5.21071 28.0392 5.58579 28.4142C5.96086 28.7893 6.46957 29 7 29H21C21.5304 29 22.0391 28.7893 22.4142 28.4142C22.7893 28.0392 23 27.5305 23 27V25H25C25.5304 25 26.0391 24.7893 26.4142 24.4142C26.7893 24.0392 27 23.5305 27 23V9.00002C27.0015 8.73397 26.8982 8.47802 26.7125 8.28752V8.28752ZM17 24H11C10.7348 24 10.4804 23.8947 10.2929 23.7071C10.1054 23.5196 10 23.2652 10 23C10 22.7348 10.1054 22.4804 10.2929 22.2929C10.4804 22.1054 10.7348 22 11 22H17C17.2652 22 17.5196 22.1054 17.7071 22.2929C17.8946 22.4804 18 22.7348 18 23C18 23.2652 17.8946 23.5196 17.7071 23.7071C17.5196 23.8947 17.2652 24 17 24ZM17 20H11C10.7348 20 10.4804 19.8947 10.2929 19.7071C10.1054 19.5196 10 19.2652 10 19C10 18.7348 10.1054 18.4804 10.2929 18.2929C10.4804 18.1054 10.7348 18 11 18H17C17.2652 18 17.5196 18.1054 17.7071 18.2929C17.8946 18.4804 18 18.7348 18 19C18 19.2652 17.8946 19.5196 17.7071 19.7071C17.5196 19.8947 17.2652 20 17 20ZM25 23H23V13C23.0015 12.734 22.8982 12.478 22.7125 12.2875L17.7125 7.28752C17.522 7.10179 17.266 6.99852 17 7.00002H11V5.00002H20.5875L25 9.41252V23Z" fill="#059235"/>
    <path d="M6.59926 44L4.51426 36.8H5.44426L7.04426 42.495L8.63926 36.805L9.57426 36.8L11.1743 42.495L12.7693 36.8H13.7043L11.6193 44H10.7293L9.10926 38.355L7.48926 44H6.59926ZM14.5564 44V36.8H15.4464V39.975H19.2364V36.8H20.1264V44H19.2364V40.82H15.4464V44H14.5564ZM21.5291 44V36.8H23.7491C23.8224 36.8 23.9508 36.8017 24.1341 36.805C24.3174 36.8083 24.4924 36.8217 24.6591 36.845C25.2158 36.9183 25.6808 37.1217 26.0541 37.455C26.4308 37.785 26.7141 38.205 26.9041 38.715C27.0941 39.225 27.1891 39.7867 27.1891 40.4C27.1891 41.0133 27.0941 41.575 26.9041 42.085C26.7141 42.595 26.4308 43.0167 26.0541 43.35C25.6808 43.68 25.2158 43.8817 24.6591 43.955C24.4924 43.975 24.3158 43.9883 24.1291 43.995C23.9458 43.9983 23.8191 44 23.7491 44H21.5291ZM22.4441 43.15H23.7491C23.8758 43.15 24.0174 43.1467 24.1741 43.14C24.3308 43.13 24.4674 43.115 24.5841 43.095C24.9774 43.0217 25.2958 42.8567 25.5391 42.6C25.7824 42.3433 25.9608 42.0233 26.0741 41.64C26.1874 41.2567 26.2441 40.8433 26.2441 40.4C26.2441 39.9467 26.1858 39.5283 26.0691 39.145C25.9558 38.7617 25.7774 38.4433 25.5341 38.19C25.2908 37.9367 24.9741 37.775 24.5841 37.705C24.4674 37.6817 24.3291 37.6667 24.1691 37.66C24.0091 37.6533 23.8691 37.65 23.7491 37.65H22.4441V43.15Z" fill="#059235"/>
</svg>
    