<svg width="52" height="47" viewBox="0 0 52 47" fill="none"
    xmlns="http://www.w3.org/2000/svg">
    <path d="M36.7125 8.28752L31.7125 3.28752C31.522 3.10179 31.266 2.99852 31 3.00002H21C20.4696 3.00002 19.9609 3.21073 19.5858 3.5858C19.2107 3.96088 19 4.46958 19 5.00002V7.00002H17C16.4696 7.00002 15.9609 7.21073 15.5858 7.5858C15.2107 7.96088 15 8.46958 15 9.00002V27C15 27.5305 15.2107 28.0392 15.5858 28.4142C15.9609 28.7893 16.4696 29 17 29H31C31.5304 29 32.0391 28.7893 32.4142 28.4142C32.7893 28.0392 33 27.5305 33 27V25H35C35.5304 25 36.0391 24.7893 36.4142 24.4142C36.7893 24.0392 37 23.5305 37 23V9.00002C37.0015 8.73397 36.8982 8.47802 36.7125 8.28752ZM27 24H21C20.7348 24 20.4804 23.8947 20.2929 23.7071C20.1054 23.5196 20 23.2652 20 23C20 22.7348 20.1054 22.4804 20.2929 22.2929C20.4804 22.1054 20.7348 22 21 22H27C27.2652 22 27.5196 22.1054 27.7071 22.2929C27.8946 22.4804 28 22.7348 28 23C28 23.2652 27.8946 23.5196 27.7071 23.7071C27.5196 23.8947 27.2652 24 27 24ZM27 20H21C20.7348 20 20.4804 19.8947 20.2929 19.7071C20.1054 19.5196 20 19.2652 20 19C20 18.7348 20.1054 18.4804 20.2929 18.2929C20.4804 18.1054 20.7348 18 21 18H27C27.2652 18 27.5196 18.1054 27.7071 18.2929C27.8946 18.4804 28 18.7348 28 19C28 19.2652 27.8946 19.5196 27.7071 19.7071C27.5196 19.8947 27.2652 20 27 20ZM35 23H33V13C33.0015 12.734 32.8982 12.478 32.7125 12.2875L27.7125 7.28752C27.522 7.10179 27.266 6.99852 27 7.00002H21V5.00002H30.5875L35 9.41252V23Z" fill="#059235"/>
    <path d="M3.03434 43.155V40.745H6.09434V39.9H3.03434V37.645H6.69434V36.8H2.14434V44H6.69434V43.155H3.03434ZM8.38629 44L10.3113 41.11L12.2363 44H13.3213L10.8513 40.355L13.2613 36.8H12.1713L10.3113 39.605L8.44629 36.8H7.36129L9.77129 40.355L7.29629 44H8.38629ZM17.2624 44V37.645H19.7174V36.8H13.9174V37.645H16.3724V44H17.2624ZM21.4035 43.155V40.745H24.4635V39.9H21.4035V37.645H25.0635V36.8H20.5135V44H25.0635V43.155H21.4035ZM30.1804 41.145C30.9954 40.805 31.4204 40.02 31.4204 39.07C31.4204 37.925 30.8054 37.02 29.6404 36.84C29.4554 36.81 29.2504 36.8 29.1104 36.8H26.2654V44H27.1554V41.34H29.2604L30.5504 44H31.5704L30.1804 41.145ZM27.1554 37.645H29.0804C29.2054 37.645 29.3804 37.655 29.5304 37.69C30.2204 37.845 30.5104 38.47 30.5104 39.07C30.5104 39.67 30.2204 40.295 29.5304 40.45C29.3804 40.485 29.2054 40.495 29.0804 40.495H27.1554V37.645ZM33.5717 38.37L37.3267 44H38.2267V36.8H37.3267V42.425L33.5717 36.8H32.6717V44H33.5717V38.37ZM39.1248 44H40.0498L40.6148 42.315H43.6898L44.2598 44H45.1848L42.7748 36.8H41.5348L39.1248 44ZM42.1448 37.735L43.4098 41.48H40.8948L42.1448 37.735ZM50.4099 44V43.155H47.0699V36.8H46.1799V44H50.4099Z" fill="#346DA1"/>
</svg>
    