<svg width="25" height="45" viewBox="0 0 25 45" fill="none" xmlns="http://www.w3.org/2000/svg">
    <path d="M12.5 0L0 5.63636V14.0909C0 21.9114 5.33333 29.2245 12.5 31C19.6667 29.2245 25 21.9114 25 14.0909V5.63636L12.5 0ZM9.72222 22.5455L4.16667 16.9091L6.125 14.9223L9.72222 18.5577L18.875 9.27182L20.8333 11.2727L9.72222 22.5455Z" fill="#059235" />
    <path d="M3.09926 45L1.01426 37.8H1.94426L3.54426 43.495L5.13926 37.805L6.07426 37.8L7.67426 43.495L9.26926 37.8H10.2043L8.11926 45H7.22926L5.60926 39.355L3.98926 45H3.09926ZM11.0564 45V37.8H11.9464V40.975H15.7364V37.8H16.6264V45H15.7364V41.82H11.9464V45H11.0564ZM18.0291 45V37.8H20.2491C20.3224 37.8 20.4508 37.8017 20.6341 37.805C20.8174 37.8083 20.9924 37.8217 21.1591 37.845C21.7158 37.9183 22.1808 38.1217 22.5541 38.455C22.9308 38.785 23.2141 39.205 23.4041 39.715C23.5941 40.225 23.6891 40.7867 23.6891 41.4C23.6891 42.0133 23.5941 42.575 23.4041 43.085C23.2141 43.595 22.9308 44.0167 22.5541 44.35C22.1808 44.68 21.7158 44.8817 21.1591 44.955C20.9924 44.975 20.8158 44.9883 20.6291 44.995C20.4458 44.9983 20.3191 45 20.2491 45H18.0291ZM18.9441 44.15H20.2491C20.3758 44.15 20.5174 44.1467 20.6741 44.14C20.8308 44.13 20.9674 44.115 21.0841 44.095C21.4774 44.0217 21.7958 43.8567 22.0391 43.6C22.2824 43.3433 22.4608 43.0233 22.5741 42.64C22.6874 42.2567 22.7441 41.8433 22.7441 41.4C22.7441 40.9467 22.6858 40.5283 22.5691 40.145C22.4558 39.7617 22.2774 39.4433 22.0341 39.19C21.7908 38.9367 21.4741 38.775 21.0841 38.705C20.9674 38.6817 20.8291 38.6667 20.6691 38.66C20.5091 38.6533 20.3691 38.65 20.2491 38.65H18.9441V44.15Z" fill="#059235" />
</svg>
    