<svg width="49" height="45" viewBox="0 0 49 45" fill="none" xmlns="http://www.w3.org/2000/svg">
    <path d="M1.03434 44.155V41.745H4.09434V40.9H1.03434V38.645H4.69434V37.8H0.144336V45H4.69434V44.155H1.03434ZM6.38629 45L8.31129 42.11L10.2363 45H11.3213L8.85129 41.355L11.2613 37.8H10.1713L8.31129 40.605L6.44629 37.8H5.36129L7.77129 41.355L5.29629 45H6.38629ZM15.2624 45V38.645H17.7174V37.8H11.9174V38.645H14.3724V45H15.2624ZM19.4035 44.155V41.745H22.4635V40.9H19.4035V38.645H23.0635V37.8H18.5135V45H23.0635V44.155H19.4035ZM28.1804 42.145C28.9954 41.805 29.4204 41.02 29.4204 40.07C29.4204 38.925 28.8054 38.02 27.6404 37.84C27.4554 37.81 27.2504 37.8 27.1104 37.8H24.2654V45H25.1554V42.34H27.2604L28.5504 45H29.5704L28.1804 42.145ZM25.1554 38.645H27.0804C27.2054 38.645 27.3804 38.655 27.5304 38.69C28.2204 38.845 28.5104 39.47 28.5104 40.07C28.5104 40.67 28.2204 41.295 27.5304 41.45C27.3804 41.485 27.2054 41.495 27.0804 41.495H25.1554V38.645ZM31.5717 39.37L35.3267 45H36.2267V37.8H35.3267V43.425L31.5717 37.8H30.6717V45H31.5717V39.37ZM37.1248 45H38.0498L38.6148 43.315H41.6898L42.2598 45H43.1848L40.7748 37.8H39.5348L37.1248 45ZM40.1448 38.735L41.4098 42.48H38.8948L40.1448 38.735ZM48.4099 45V44.155H45.0699V37.8H44.1799V45H48.4099Z" fill="#346DA1" />
    <path d="M23.5 0L11 5.63636V14.0909C11 21.9114 16.3333 29.2245 23.5 31C30.6667 29.2245 36 21.9114 36 14.0909V5.63636L23.5 0ZM20.7222 22.5455L15.1667 16.9091L17.125 14.9223L20.7222 18.5577L29.875 9.27182L31.8333 11.2727L20.7222 22.5455Z" fill="#346DA1" />
</svg>
    