<svg width="23" height="23" viewBox="0 0 23 23" fill="none" xmlns="http://www.w3.org/2000/svg">
    <path d="M8.625 10.542H6.70833V12.4587H8.625V10.542ZM12.4583 10.542H10.5417V12.4587H12.4583V10.542ZM16.2917 10.542H14.375V12.4587H16.2917V10.542ZM18.2083 3.83366H17.25V1.91699H15.3333V3.83366H7.66667V1.91699H5.75V3.83366H4.79167C3.72792 3.83366 2.88458 4.69616 2.88458 5.75033L2.875 19.167C2.875 20.2212 3.72792 21.0837 4.79167 21.0837H18.2083C19.2625 21.0837 20.125 20.2212 20.125 19.167V5.75033C20.125 4.69616 19.2625 3.83366 18.2083 3.83366ZM18.2083 19.167H4.79167V8.62533H18.2083V19.167Z" fill="#404040" />
</svg>
    