<svg width="30" height="30" viewBox="0 0 30 30" fill="none" xmlns="http://www.w3.org/2000/svg">
    <path d="M3.75 5.625V24.366" stroke="#346DA1" stroke-width="2" stroke-linecap="round" />
    <path d="M26.25 11.25V24.375" stroke="#346DA1" stroke-width="2" stroke-linecap="round" stroke-linejoin="round" />
    <path d="M7.5 1.875H16.875" stroke="#346DA1" stroke-width="2" stroke-linecap="round" stroke-linejoin="round" />
    <path d="M7.5 28.125H22.5" stroke="#346DA1" stroke-width="2" stroke-linecap="round" />
    <path d="M26.25 24.375C26.2602 26.2479 24.375 28.125 22.5 28.125" stroke="#346DA1" stroke-width="2" stroke-linecap="round" stroke-linejoin="round" />
    <path d="M3.75 24.375C3.75 26.25 5.625 28.125 7.5 28.125" stroke="#346DA1" stroke-width="2" stroke-linecap="round" stroke-linejoin="round" />
    <path d="M3.75 5.62207C3.75 3.74979 5.625 1.91655 7.5 1.87479" stroke="#346DA1" stroke-width="2" stroke-linecap="round" stroke-linejoin="round" />
    <path d="M26.2398 11.2584L16.875 1.875" stroke="#346DA1" stroke-width="2" stroke-linecap="round" stroke-linejoin="round" />
    <path d="M16.875 7.5C16.8808 9.3648 18.7576 11.25 20.625 11.25" stroke="#346DA1" stroke-width="2" stroke-linecap="round" stroke-linejoin="round" />
    <path d="M16.875 7.5V1.875" stroke="#346DA1" stroke-width="2" stroke-linecap="round" stroke-linejoin="round" />
    <path d="M20.625 11.25H26.25" stroke="#346DA1" stroke-width="2" stroke-linecap="round" stroke-linejoin="round" />
    <path d="M7.5 24.375H13.125" stroke="#346DA1" stroke-width="2" stroke-linecap="round" stroke-linejoin="round" />
    <path d="M7.5 20.625H16.875" stroke="#346DA1" stroke-width="2" stroke-linecap="round" stroke-linejoin="round" />
    <path d="M7.5 16.875H13.125" stroke="#346DA1" stroke-width="2" stroke-linecap="round" stroke-linejoin="round" />
</svg>
    