<svg width="58" height="32" viewBox="0 0 58 32" fill="none" xmlns="http://www.w3.org/2000/svg">
    <path d="M16.7513 11.1138C16.7513 13.6828 16.3978 15.7484 15.6909 17.3103C14.9839 18.8723 13.9184 20.0079 12.4943 20.7169C11.0702 21.426 9.0672 21.7805 6.48535 21.7805H0V0.447017H6.42388C8.93401 0.447017 10.9267 0.811824 12.4021 1.54144C13.8877 2.27105 14.9839 3.41172 15.6909 4.96343C16.3978 6.50487 16.7513 8.55498 16.7513 11.1138ZM12.2791 11.0829C12.2791 9.22293 12.0947 7.84592 11.7259 6.95188C11.3673 6.04757 10.7526 5.40017 9.88171 5.00967C9.01085 4.61917 7.71993 4.42393 6.00894 4.42393H4.34918V17.8036H6.00894C7.71993 17.8036 9.00573 17.6084 9.86634 17.2179C10.7372 16.8171 11.3571 16.1543 11.7259 15.2294C12.0947 14.3045 12.2791 12.9224 12.2791 11.0829Z" fill="black" />
    <path d="M18.1959 21.7805L25.2345 0.447017H30.8746L37.9286 21.7805H33.4872L32.0733 17.4491H23.8821L22.4989 21.7805H18.1959ZM25.1115 13.6417H30.8438L27.9854 4.8247L25.1115 13.6417Z" fill="black" />
    <path d="M57.6766 11.1138C57.6766 14.8235 56.8928 17.6032 55.3253 19.4529C53.768 21.3027 51.4986 22.2275 48.5172 22.2275C45.3719 22.2275 43.0564 21.2564 41.5708 19.3142C40.0955 17.3617 39.3578 14.6282 39.3578 11.1138C39.3578 7.57873 40.0955 4.84525 41.5708 2.91332C43.0564 0.971106 45.3719 0 48.5172 0C51.683 0 53.9985 0.971106 55.4636 2.91332C56.9389 4.84525 57.6766 7.57873 57.6766 11.1138ZM53.2045 11.1138C53.2045 8.58581 52.8459 6.74636 52.1287 5.59542C51.4218 4.4342 50.2179 3.85359 48.5172 3.85359C46.8165 3.85359 45.6075 4.4342 44.8903 5.59542C44.1834 6.74636 43.8299 8.58581 43.8299 11.1138C43.8299 13.6417 44.1885 15.4863 44.9057 16.6475C45.6331 17.7985 46.837 18.3739 48.5172 18.3739C50.2179 18.3739 51.4218 17.7985 52.1287 16.6475C52.8459 15.4863 53.2045 13.6417 53.2045 11.1138Z" fill="black" />
    <rect y="26.252" width="57.6766" height="5.7485" fill="#898989" />
</svg>
    