<svg width="66" height="66" viewBox="0 0 66 66" fill="none" xmlns="http://www.w3.org/2000/svg">
    <path d="M40.6 43.2857V53.5714H13.4V12.4286H30.4V9H13.4C12.4983 9 11.6335 9.36122 10.9958 10.0042C10.3582 10.6472 10 11.5193 10 12.4286V53.5714C10 54.4807 10.3582 55.3528 10.9958 55.9958C11.6335 56.6388 12.4983 57 13.4 57H40.6C41.5017 57 42.3665 56.6388 43.0042 55.9958C43.6418 55.3528 44 54.4807 44 53.5714V43.2857H40.6Z" fill="#CC2D8F" />
    <path d="M54.239 15.3884L48.6254 9.77763C48.1167 9.27919 47.4327 9 46.7202 9C46.0078 9 45.3238 9.27919 44.815 9.77763L21 33.5808V43H30.4069L54.222 19.1969C54.7207 18.6884 55 18.0047 55 17.2926C55 16.5806 54.7207 15.8969 54.222 15.3884H54.239ZM28.995 39.5996H24.4021V35.0089L40.4603 18.9418L45.0702 23.5494L28.995 39.5996ZM47.4687 21.1521L42.8588 16.5445L46.7202 12.685L51.3302 17.2926L47.4687 21.1521Z" fill="#CC2D8F" />
</svg>
    