<svg width="66" height="66" viewBox="0 0 66 66" fill="none" xmlns="http://www.w3.org/2000/svg">
    <path d="M22.6875 49.5H43.3125V53.625H22.6875V49.5ZM26.8125 57.75H39.1875V61.875H26.8125V57.75ZM33 4.125C27.5299 4.125 22.2838 6.29798 18.4159 10.1659C14.548 14.0339 12.375 19.2799 12.375 24.75C12.2355 27.7475 12.8097 30.7353 14.0503 33.4676C15.291 36.1998 17.1626 38.5985 19.5112 40.4663C21.5737 42.3844 22.6875 43.4775 22.6875 45.375H26.8125C26.8125 41.58 24.5231 39.4556 22.2956 37.4137C20.3679 35.9375 18.8316 34.0112 17.8212 31.8034C16.8108 29.5956 16.3571 27.1738 16.5 24.75C16.5 20.3739 18.2384 16.1771 21.3327 13.0827C24.4271 9.98839 28.6239 8.25 33 8.25C37.3761 8.25 41.5729 9.98839 44.6672 13.0827C47.7616 16.1771 49.5 20.3739 49.5 24.75C49.6405 27.1756 49.1836 29.5986 48.1696 31.8065C47.1555 34.0144 45.6152 35.9398 43.6837 37.4137C41.4769 39.4762 39.1875 41.5387 39.1875 45.375H43.3125C43.3125 43.4775 44.4056 42.3844 46.4887 40.4456C48.8357 38.5811 50.7065 36.1859 51.9471 33.4573C53.1878 30.7286 53.7628 27.7443 53.625 24.75C53.625 22.0415 53.0915 19.3595 52.055 16.8572C51.0185 14.3548 49.4993 12.0811 47.5841 10.1659C45.6688 8.25071 43.3952 6.73149 40.8928 5.69498C38.3905 4.65848 35.7085 4.125 33 4.125Z" fill="#CC2D8F" />
</svg>
    