<svg width="66" height="66" viewBox="0 0 66 66" fill="none" xmlns="http://www.w3.org/2000/svg">
    <path d="M48.4688 42.7969C46.6318 42.7969 44.9367 43.4414 43.609 44.5178L30.2543 34.8562C30.4779 33.6289 30.4779 32.3711 30.2543 31.1438L43.609 21.4822C44.9367 22.5586 46.6318 23.2031 48.4688 23.2031C52.7355 23.2031 56.2031 19.7355 56.2031 15.4688C56.2031 11.202 52.7355 7.73438 48.4688 7.73438C44.202 7.73438 40.7344 11.202 40.7344 15.4688C40.7344 16.2164 40.8375 16.9318 41.0373 17.615L28.3529 26.7996C26.4709 24.3053 23.4803 22.6875 20.1094 22.6875C14.4117 22.6875 9.79688 27.3023 9.79688 33C9.79688 38.6977 14.4117 43.3125 20.1094 43.3125C23.4803 43.3125 26.4709 41.6947 28.3529 39.2004L41.0373 48.385C40.8375 49.0682 40.7344 49.79 40.7344 50.5312C40.7344 54.798 44.202 58.2656 48.4688 58.2656C52.7355 58.2656 56.2031 54.798 56.2031 50.5312C56.2031 46.2645 52.7355 42.7969 48.4688 42.7969ZM48.4688 12.1172C50.3186 12.1172 51.8203 13.6189 51.8203 15.4688C51.8203 17.3186 50.3186 18.8203 48.4688 18.8203C46.6189 18.8203 45.1172 17.3186 45.1172 15.4688C45.1172 13.6189 46.6189 12.1172 48.4688 12.1172ZM20.1094 38.6719C16.9834 38.6719 14.4375 36.126 14.4375 33C14.4375 29.874 16.9834 27.3281 20.1094 27.3281C23.2354 27.3281 25.7812 29.874 25.7812 33C25.7812 36.126 23.2354 38.6719 20.1094 38.6719ZM48.4688 53.8828C46.6189 53.8828 45.1172 52.3811 45.1172 50.5312C45.1172 48.6814 46.6189 47.1797 48.4688 47.1797C50.3186 47.1797 51.8203 48.6814 51.8203 50.5312C51.8203 52.3811 50.3186 53.8828 48.4688 53.8828Z" fill="#CC2D8F" />
</svg>
    