<svg width="66" height="66" viewBox="0 0 66 66" fill="none" xmlns="http://www.w3.org/2000/svg">
    <path d="M61.7609 51.4634L51.3087 41.0112L43.2691 37.6896C45.946 33.8828 47.3802 29.3413 47.375 24.6875C47.375 12.1775 37.1975 2 24.6875 2C12.1775 2 2 12.1775 2 24.6875C2 37.1975 12.1775 47.375 24.6875 47.375C29.3818 47.3804 33.9609 45.9214 37.7868 43.2014L41.0997 51.2194L51.5516 61.6721C52.2219 62.3425 53.0177 62.8742 53.8935 63.2371C54.7693 63.5999 55.708 63.7866 56.656 63.7866C57.604 63.7867 58.5427 63.6 59.4186 63.2372C60.2944 62.8745 61.0903 62.3428 61.7606 61.6724C62.431 61.0021 62.9627 60.2063 63.3255 59.3305C63.6884 58.4547 63.8751 57.516 63.8751 56.568C63.8752 55.62 63.6885 54.6813 63.3257 53.8054C62.963 52.9296 62.4313 52.1337 61.7609 51.4634ZM6.125 24.6875C6.125 14.4523 14.4523 6.125 24.6875 6.125C34.9227 6.125 43.25 14.4523 43.25 24.6875C43.25 34.9227 34.9227 43.25 24.6875 43.25C14.4523 43.25 6.125 34.9227 6.125 24.6875ZM58.8439 58.7554C58.2633 59.3347 57.4765 59.6601 56.6562 59.6601C55.836 59.6601 55.0492 59.3347 54.4686 58.7554L44.598 48.8848L41.5179 41.4295L48.9734 44.5095L58.8442 54.3801C59.4234 54.9608 59.7487 55.7476 59.7487 56.5678C59.7486 57.388 59.4233 58.1747 58.8439 58.7554Z" fill="#CC2D8F" />
</svg>
    