<svg width="66" height="66" viewBox="0 0 66 66" fill="none" xmlns="http://www.w3.org/2000/svg">
    <path d="M20.625 37.125H37.125V41.25H20.625V37.125ZM20.625 26.8125H45.375V30.9375H20.625V26.8125ZM20.625 47.4375H30.9375V51.5625H20.625V47.4375Z" fill="#CC2D8F" />
    <path d="M51.5625 10.3125H45.375V8.25C45.375 7.15598 44.9404 6.10677 44.1668 5.33318C43.3932 4.5596 42.344 4.125 41.25 4.125H24.75C23.656 4.125 22.6068 4.5596 21.8332 5.33318C21.0596 6.10677 20.625 7.15598 20.625 8.25V10.3125H14.4375C13.3435 10.3125 12.2943 10.7471 11.5207 11.5207C10.7471 12.2943 10.3125 13.3435 10.3125 14.4375V57.75C10.3125 58.844 10.7471 59.8932 11.5207 60.6668C12.2943 61.4404 13.3435 61.875 14.4375 61.875H51.5625C52.6565 61.875 53.7057 61.4404 54.4793 60.6668C55.2529 59.8932 55.6875 58.844 55.6875 57.75V14.4375C55.6875 13.3435 55.2529 12.2943 54.4793 11.5207C53.7057 10.7471 52.6565 10.3125 51.5625 10.3125ZM24.75 8.25H41.25V16.5H24.75V8.25ZM51.5625 57.75H14.4375V14.4375H20.625V20.625H45.375V14.4375H51.5625V57.75Z" fill="#CC2D8F" />
</svg>
    