<svg width="30" height="30" viewBox="0 0 30 30" fill="none"
    xmlns="http://www.w3.org/2000/svg">
    <g clip-path="url(#clip0_2405_20644)">
        <path d="M5 7.5H2.5V25C2.5 26.375 3.625 27.5 5 27.5H22.5V25H5V7.5ZM25 2.5H10C8.625 2.5 7.5 3.625 7.5 5V20C7.5 21.375 8.625 22.5 10 22.5H25C26.375 22.5 27.5 21.375 27.5 20V5C27.5 3.625 26.375 2.5 25 2.5ZM23.75 13.75H18.75V18.75H16.25V13.75H11.25V11.25H16.25V6.25H18.75V11.25H23.75V13.75Z" fill="#346DA1"/>
    </g>
    <defs>
        <clipPath id="clip0_2405_20644">
            <rect width="30" height="30" fill="white"/>
        </clipPath>
    </defs>
</svg>
    