<svg width="40" height="40" viewBox="0 0 40 40" fill="none"
    xmlns="http://www.w3.org/2000/svg">
    <circle cx="20" cy="20" r="20" fill="#F3BA2F" fill-opacity="0.1"/>
    <g clip-path="url(#clip0_2865_19109)">
        <path d="M14.9086 18.8377L19.2164 14.6047L23.4514 18.9143L25.9579 16.4513L19.2599 9.63524L12.4458 16.3311L14.9087 18.8375L14.9086 18.8377ZM8.16933 20.5334L10.6759 18.07L13.1388 20.5764L10.6322 23.0394L8.16933 20.5334ZM14.8779 22.347L19.111 26.6545L23.4207 22.4197L25.885 24.9249L25.8838 24.9262L19.0675 31.624L12.3717 24.8099L12.3682 24.8064L14.8782 22.3468L14.8779 22.347ZM25.1886 20.6834L27.6951 18.2203L30.158 20.7267L27.6516 23.1897L25.1886 20.6834Z" fill="#F3BA2F"/>
        <path d="M21.6833 20.6474L21.6843 20.6474L19.1852 18.1041L17.3054 19.9507L17.0894 20.163L16.644 20.6008L16.6405 20.6042L16.644 20.6078L19.1411 23.1493L21.6845 20.6501L21.6857 20.6487L21.6835 20.6474" fill="#F3BA2F"/>
    </g>
    <defs>
        <clipPath id="clip0_2865_19109">
            <rect width="23.3639" height="23.3639" fill="white" transform="translate(8.23529 8.23438) rotate(0.501206)"/>
        </clipPath>
    </defs>
</svg>
    