<svg width="40" height="40" viewBox="0 0 40 40" fill="none"
    xmlns="http://www.w3.org/2000/svg">
    <circle cx="20" cy="20" r="20" fill="#8247E5" fill-opacity="0.1"/>
    <path d="M24.6559 16.0296C24.2822 15.8094 23.7966 15.8094 23.3856 16.0296L20.4714 17.7178L18.4912 18.8188L15.577 20.507C15.2034 20.7272 14.7177 20.7272 14.3067 20.507L11.9903 19.1858C11.6167 18.9656 11.3552 18.5619 11.3552 18.1215V15.5158C11.3552 15.0755 11.5793 14.6718 11.9903 14.4516L14.2694 13.1671C14.643 12.9469 15.1287 12.9469 15.5397 13.1671L17.8187 14.4516C18.1923 14.6718 18.4539 15.0755 18.4539 15.5158V17.204L20.434 16.0663V14.3782C20.434 13.9378 20.2099 13.5341 19.7989 13.3139L15.577 10.8917C15.2034 10.6715 14.7177 10.6715 14.3067 10.8917L10.0101 13.3139C9.59917 13.5341 9.375 13.9378 9.375 14.3782V19.2592C9.375 19.6996 9.59917 20.1033 10.0101 20.3235L14.3067 22.7457C14.6803 22.9659 15.166 22.9659 15.577 22.7457L18.4912 21.0942L20.4714 19.9565L23.3856 18.305C23.7592 18.0848 24.2449 18.0848 24.6559 18.305L26.9349 19.5895C27.3085 19.8097 27.5701 20.2134 27.5701 20.6538V23.2594C27.5701 23.6999 27.3459 24.1035 26.9349 24.3237L24.6559 25.6449C24.2822 25.8651 23.7966 25.8651 23.3856 25.6449L21.1066 24.3604C20.7329 24.1403 20.4714 23.7365 20.4714 23.2961V21.608L18.4912 22.7457V24.4338C18.4912 24.8742 18.7154 25.2779 19.1263 25.4981L23.423 27.9203C23.7966 28.1405 24.2822 28.1405 24.6932 27.9203L28.9899 25.4981C29.3634 25.2779 29.625 24.8742 29.625 24.4338V19.5528C29.625 19.1124 29.4008 18.7087 28.9899 18.4886L24.6559 16.0296Z" fill="#8247E5"/>
</svg>
    