<svg width="40" height="40" viewBox="0 0 40 40" fill="none"
    xmlns="http://www.w3.org/2000/svg">
    <circle cx="20" cy="20" r="20" fill="#2C7DF7" fill-opacity="0.1"/>
    <path d="M22.754 33.2901C20.8942 33.2901 19.5367 32.8429 18.6815 31.9484C17.8894 31.1912 17.4297 30.1518 17.4029 29.0572C17.3933 28.7247 17.4705 28.3954 17.6269 28.1017C17.7728 27.8479 17.9836 27.6373 18.2377 27.4914C18.533 27.3443 18.8585 27.2678 19.1886 27.2678C19.5186 27.2678 19.8441 27.3443 20.1395 27.4914C20.3931 27.6367 20.6029 27.8475 20.7468 28.1017C20.9078 28.394 20.9878 28.7238 20.9788 29.0572C20.9954 29.4554 20.881 29.8481 20.6531 30.1753C20.4631 30.4424 20.1915 30.6408 19.879 30.7408C20.1846 31.1292 20.6169 31.3982 21.1007 31.5012C21.642 31.6581 22.2026 31.7388 22.7663 31.7409C23.5125 31.7474 24.2434 31.5293 24.8636 31.1149C25.507 30.6611 25.9868 30.0124 26.2319 29.265C26.5426 28.3755 26.6943 27.4383 26.6799 26.4963C26.7049 25.5143 26.539 24.5367 26.1912 23.6177C25.9296 22.8827 25.433 22.2541 24.7781 21.8288C24.1693 21.4442 23.4626 21.2424 22.7422 21.2475C22.1145 21.3006 21.5092 21.5057 20.9788 21.8451L19.6712 22.4996V21.8451L25.5477 13.9748H17.4029V22.1419C17.3799 22.7313 17.5361 23.3138 17.8509 23.8129C18.0032 24.0304 18.2092 24.2049 18.4489 24.3196C18.6886 24.4343 18.954 24.4852 19.2192 24.4674C19.7092 24.4575 20.1831 24.2908 20.5711 23.9918C21.0109 23.67 21.3936 23.277 21.7033 22.8289C21.7312 22.7504 21.7826 22.6823 21.8505 22.6339C21.9051 22.5868 21.9748 22.5609 22.0469 22.5607C22.1884 22.5736 22.3223 22.6305 22.4297 22.7233C22.5658 22.8751 22.6399 23.0724 22.6374 23.2762C22.6216 23.4131 22.5971 23.5489 22.5641 23.6827C22.2747 24.3819 21.7897 24.983 21.1671 25.4142C20.5889 25.8048 19.9059 26.012 19.2077 26.0084C17.4443 26.0084 16.2227 25.6615 15.5428 24.9676C15.1934 24.5841 14.9241 24.1348 14.7506 23.6461C14.5772 23.1574 14.5032 22.6391 14.5328 22.1215V13.9748H10.3902V12.4573H14.5522V8.99738L13.5993 8.04541V7.26953H16.3643L17.4029 7.80628V12.4573L28.162 12.4246L29.2332 13.498L22.6359 20.1165C23.0344 19.9564 23.4542 19.8551 23.8819 19.8156C24.7286 19.8526 25.5546 20.088 26.2933 20.5028C27.1486 20.9087 27.8694 21.5509 28.3703 22.3533C28.8191 23.0326 29.1368 23.7896 29.307 24.5854C29.4469 25.2131 29.522 25.8535 29.531 26.4965C29.5353 27.7236 29.2566 28.9353 28.7165 30.0376C28.2043 31.105 27.3422 31.9657 26.273 32.4771C25.1785 33.0156 23.9741 33.2938 22.754 33.2901Z" fill="#2C7DF7"/>
</svg>
    