<svg width="25" height="25" viewBox="0 0 25 25" fill="none" xmlns="http://www.w3.org/2000/svg">
    <g clip-path="url(#clip0_1057_15530)">
        <path d="M21.1636 4.67927C19.5701 3.95987 17.8614 3.42984 16.0749 3.12627C16.0424 3.12041 16.0099 3.13506 15.9931 3.16434C15.7733 3.54892 15.5299 4.05064 15.3595 4.44499C13.4379 4.16193 11.5262 4.16193 9.64408 4.44499C9.47359 4.04188 9.22134 3.54892 9.0006 3.16434C8.98384 3.13603 8.95134 3.12139 8.9188 3.12627C7.13324 3.42887 5.42454 3.9589 3.83014 4.67927C3.81634 4.68513 3.80451 4.6949 3.79665 4.70758C0.555616 9.47199 -0.33224 14.1193 0.103313 18.709C0.105283 18.7314 0.118094 18.7529 0.135831 18.7666C2.27418 20.3118 4.34553 21.2498 6.37842 21.8716C6.41095 21.8814 6.44542 21.8696 6.46613 21.8433C6.94701 21.1971 7.37567 20.5158 7.7432 19.7993C7.76489 19.7573 7.74419 19.7075 7.69986 19.691C7.01993 19.4372 6.3725 19.1277 5.74972 18.7763C5.70046 18.748 5.69651 18.6787 5.74183 18.6455C5.87289 18.5489 6.00398 18.4483 6.12912 18.3468C6.15176 18.3283 6.18331 18.3244 6.20993 18.3361C10.3013 20.1741 14.7308 20.1741 18.7739 18.3361C18.8005 18.3234 18.8321 18.3273 18.8557 18.3459C18.9809 18.4474 19.1119 18.5489 19.244 18.6455C19.2893 18.6787 19.2863 18.748 19.2371 18.7763C18.6143 19.1346 17.9669 19.4372 17.2859 19.69C17.2416 19.7066 17.2219 19.7573 17.2436 19.7993C17.619 20.5148 18.0477 21.1961 18.5197 21.8423C18.5394 21.8696 18.5749 21.8814 18.6074 21.8716C20.6501 21.2498 22.7215 20.3118 24.8598 18.7666C24.8786 18.7529 24.8904 18.7324 24.8924 18.71C25.4136 13.4038 24.0193 8.79458 21.1961 4.70855C21.1892 4.6949 21.1774 4.68513 21.1636 4.67927ZM8.35419 15.9144C7.12239 15.9144 6.10743 14.8016 6.10743 13.435C6.10743 12.0685 7.10271 10.9557 8.35419 10.9557C9.61549 10.9557 10.6206 12.0782 10.6009 13.435C10.6009 14.8016 9.60563 15.9144 8.35419 15.9144ZM16.6612 15.9144C15.4294 15.9144 14.4145 14.8016 14.4145 13.435C14.4145 12.0685 15.4097 10.9557 16.6612 10.9557C17.9225 10.9557 18.9276 12.0782 18.908 13.435C18.908 14.8016 17.9225 15.9144 16.6612 15.9144Z" fill="#404040" />
    </g>
    <defs>
        <clipPath id="clip0_1057_15530">
            <rect width="25" height="25" fill="white" />
        </clipPath>
    </defs>
</svg>
    