<svg width="23" height="22" viewBox="0 0 23 22" fill="none" xmlns="http://www.w3.org/2000/svg">
    <path fill-rule="evenodd" clip-rule="evenodd" d="M11.4953 0.0419928C8.77542 0.0448223 6.14522 0.993826 4.0747 2.71941C2.00418 4.445 0.628254 6.83473 0.192805 9.46154C-0.242643 12.0883 0.290762 14.7811 1.6977 17.0585C3.10464 19.3359 5.29343 21.0497 7.87292 21.8935C8.44571 21.998 8.65534 21.6505 8.65534 21.3539C8.65534 21.0927 8.64465 20.2043 8.64065 19.2638C5.45224 19.9431 4.77931 17.9404 4.77931 17.9404C4.25726 16.6445 3.50689 16.2996 3.50689 16.2996C2.46679 15.6047 3.58433 15.619 3.58433 15.619C4.73525 15.6974 5.34142 16.7738 5.34142 16.7738C6.36417 18.4891 8.02246 17.9927 8.67937 17.7066C8.78218 16.9816 9.07992 16.4864 9.40704 16.2069C6.85552 15.9286 4.18516 14.9698 4.18516 10.6705C4.17088 9.55783 4.59387 8.48225 5.36679 7.66591C5.24796 7.38373 4.85542 6.24328 5.47761 4.69786C5.47761 4.69786 6.44028 4.3974 8.62997 5.84745C10.5091 5.34382 12.4921 5.34382 14.3712 5.84745C16.5582 4.3974 17.5196 4.69786 17.5196 4.69786C18.1431 6.24328 17.7506 7.38373 17.6317 7.66591C18.4054 8.48173 18.828 9.55777 18.812 10.6705C18.812 14.9815 16.131 15.926 13.5781 16.203C13.9894 16.5518 14.3552 17.2337 14.3552 18.2801C14.3552 19.7798 14.3419 20.9882 14.3419 21.3566C14.3419 21.6557 14.5488 22.0097 15.1296 21.8948C17.7111 21.0514 19.9016 19.3368 21.3092 17.0578C22.7169 14.7788 23.2499 12.0841 22.8128 9.45585C22.3756 6.82758 20.997 4.43723 18.9235 2.71248C16.8499 0.987725 14.2168 0.0411083 11.4953 0.0419928Z" fill="#404040" />
</svg>
    