<svg width="35" height="33" viewBox="0 0 35 33" fill="none" xmlns="http://www.w3.org/2000/svg">
    <path fill-rule="evenodd" clip-rule="evenodd" d="M17.4878 9.34179e-07C13.3338 0.00426947 9.31683 1.43591 6.15457 4.03908C2.99232 6.64226 0.890907 10.2473 0.225858 14.2101C-0.43919 18.1728 0.375465 22.235 2.52424 25.6706C4.67302 29.1063 8.0159 31.6916 11.9555 32.9645C12.8303 33.1222 13.1504 32.598 13.1504 32.1506C13.1504 31.7565 13.1341 30.4164 13.128 28.9974C8.25846 30.0222 7.23071 27.0011 7.23071 27.0011C6.43339 25.0461 5.28737 24.5258 5.28737 24.5258C3.69885 23.4774 5.40564 23.4991 5.40564 23.4991C7.16342 23.6173 8.0892 25.2412 8.0892 25.2412C9.65122 27.8288 12.1839 27.0799 13.1872 26.6483C13.3442 25.5545 13.7989 24.8076 14.2985 24.3859C10.4016 23.9661 6.32327 22.5196 6.32327 16.0339C6.30146 14.3553 6.94749 12.7327 8.12795 11.5012C7.94646 11.0755 7.34694 9.35509 8.2972 7.02371C8.2972 7.02371 9.76745 6.57044 13.1117 8.75796C15.9817 7.99819 19.0102 7.99819 21.8802 8.75796C25.2204 6.57044 26.6886 7.02371 26.6886 7.02371C27.6409 9.35509 27.0413 11.0755 26.8599 11.5012C28.0414 12.7319 28.687 14.3552 28.6625 16.0339C28.6625 22.5373 24.5678 23.9622 20.6689 24.38C21.297 24.9062 21.8557 25.9349 21.8557 27.5135C21.8557 29.7759 21.8353 31.5988 21.8353 32.1545C21.8353 32.6058 22.1514 33.1399 23.0384 32.9665C26.981 31.6941 30.3265 29.1076 32.4764 25.6696C34.6263 22.2315 35.4403 18.1664 34.7727 14.2015C34.1051 10.2365 31.9995 6.63053 28.8327 4.02862C25.6658 1.42671 21.6444 -0.00133336 17.4878 9.34179e-07Z" fill="#346DA1" />
</svg>
    