<svg width="25" height="25" viewBox="0 0 25 25" fill="none" xmlns="http://www.w3.org/2000/svg">
    <path d="M17.0423 14.583C17.1257 13.8955 17.1882 13.208 17.1882 12.4997C17.1882 11.7913 17.1257 11.1038 17.0423 10.4163H20.5632C20.7298 11.083 20.834 11.7809 20.834 12.4997C20.834 13.2184 20.7298 13.9163 20.5632 14.583H17.0423ZM15.1986 20.3747C15.8236 19.2184 16.3027 17.9684 16.6361 16.6663H19.709C18.6998 18.4041 17.0987 19.7205 15.1986 20.3747ZM14.9382 14.583H10.0632C9.95898 13.8955 9.89648 13.208 9.89648 12.4997C9.89648 11.7913 9.95898 11.0934 10.0632 10.4163H14.9382C15.0319 11.0934 15.1048 11.7913 15.1048 12.4997C15.1048 13.208 15.0319 13.8955 14.9382 14.583ZM12.5007 20.7913C11.6361 19.5413 10.9382 18.1559 10.5111 16.6663H14.4902C14.0632 18.1559 13.3652 19.5413 12.5007 20.7913ZM8.33398 8.33301H5.29232C6.29113 6.59052 7.89106 5.27206 9.79232 4.62467C9.16732 5.78092 8.69857 7.03092 8.33398 8.33301ZM5.29232 16.6663H8.33398C8.69857 17.9684 9.16732 19.2184 9.79232 20.3747C7.89505 19.7202 6.29737 18.4035 5.29232 16.6663ZM4.43815 14.583C4.27148 13.9163 4.16732 13.2184 4.16732 12.4997C4.16732 11.7809 4.27148 11.083 4.43815 10.4163H7.95898C7.87565 11.1038 7.81315 11.7913 7.81315 12.4997C7.81315 13.208 7.87565 13.8955 7.95898 14.583H4.43815ZM12.5007 4.19759C13.3652 5.44759 14.0632 6.84342 14.4902 8.33301H10.5111C10.9382 6.84342 11.6361 5.44759 12.5007 4.19759ZM19.709 8.33301H16.6361C16.3101 7.04286 15.8273 5.79748 15.1986 4.62467C17.1152 5.28092 18.709 6.60384 19.709 8.33301ZM12.5007 2.08301C6.74023 2.08301 2.08398 6.77051 2.08398 12.4997C2.08398 15.2623 3.18145 17.9119 5.13496 19.8654C6.10223 20.8326 7.25056 21.5999 8.51437 22.1234C9.77817 22.6469 11.1327 22.9163 12.5007 22.9163C15.2633 22.9163 17.9128 21.8189 19.8663 19.8654C21.8199 17.9119 22.9173 15.2623 22.9173 12.4997C22.9173 11.1317 22.6479 9.7772 22.1244 8.51339C21.6009 7.24958 20.8336 6.10126 19.8663 5.13398C18.8991 4.1667 17.7507 3.39942 16.4869 2.87593C15.2231 2.35244 13.8686 2.08301 12.5007 2.08301Z" fill="#404040" />
</svg>
    