<svg width="25" height="25" viewBox="0 0 25 25" fill="none" xmlns="http://www.w3.org/2000/svg">
    <path d="M7.05104 5.65918C3.15635 5.66892 0.00195312 8.82981 0.00195312 12.7261C0.00195312 16.6208 3.15635 19.7817 7.05104 19.7915C10.9474 19.7817 14.1018 16.6208 14.1018 12.7261C14.1018 8.82981 10.9474 5.66892 7.05104 5.65918ZM18.0646 6.07479C16.1181 6.0829 14.5401 9.05872 14.5401 12.7261C14.5401 16.3919 16.1181 19.3677 18.0646 19.3758C20.0128 19.3677 21.5908 16.3919 21.5908 12.7261C21.5908 9.05872 20.0128 6.0829 18.0646 6.07479ZM23.4692 6.49039C22.948 6.48552 22.4675 7.67228 22.2061 9.60258C21.9464 11.5345 21.9464 13.9161 22.2061 15.8481C22.4675 17.7784 22.948 18.9651 23.4692 18.9602C23.9903 18.9651 24.4708 17.7784 24.7322 15.8481C24.992 13.9161 24.992 11.5345 24.7322 9.60258C24.4708 7.67228 23.9903 6.48552 23.4692 6.49039Z" fill="#404040" />
</svg>
    