<svg width="25" height="25" viewBox="0 0 25 15" fill="none" xmlns="http://www.w3.org/2000/svg">
<path d="M7.05104 0.65918C3.15635 0.668921 0.00195312 3.82981 0.00195312 7.72613C0.00195312 11.6208 3.15635 14.7817 7.05104 14.7915C10.9474 14.7817 14.1018 11.6208 14.1018 7.72613C14.1018 3.82981 10.9474 0.668921 7.05104 0.65918ZM18.0646 1.07479C16.1181 1.0829 14.5401 4.05872 14.5401 7.72613C14.5401 11.3919 16.1181 14.3677 18.0646 14.3758C20.0128 14.3677 21.5908 11.3919 21.5908 7.72613C21.5908 4.05872 20.0128 1.0829 18.0646 1.07479ZM23.4692 1.49039C22.948 1.48552 22.4675 2.67228 22.2061 4.60258C21.9464 6.53451 21.9464 8.91613 22.2061 10.8481C22.4675 12.7784 22.948 13.9651 23.4692 13.9602C23.9903 13.9651 24.4708 12.7784 24.7322 10.8481C24.992 8.91613 24.992 6.53451 24.7322 4.60258C24.4708 2.67228 23.9903 1.48552 23.4692 1.49039Z" fill="#404040"/>
</svg>
