<svg width="25" height="25" viewBox="0 0 25 25" fill="none"
    xmlns="http://www.w3.org/2000/svg">
    <g clip-path="url(#clip0_1080_14958)">
        <path d="M7.04909 5.65918C3.1544 5.66892 0 8.82981 0 12.7261C0 16.6208 3.1544 19.7817 7.04909 19.7915C10.9454 19.7817 14.0998 16.6208 14.0998 12.7261C14.0998 8.82981 10.9454 5.66892 7.04909 5.65918ZM18.0627 6.07479C16.1162 6.0829 14.5381 9.05872 14.5381 12.7261C14.5381 16.3919 16.1162 19.3677 18.0627 19.3759C20.0108 19.3677 21.5889 16.3919 21.5889 12.7261C21.5889 9.05872 20.0108 6.0829 18.0627 6.07479ZM23.4672 6.49039C22.9461 6.48552 22.4655 7.67228 22.2042 9.60258C21.9444 11.5345 21.9444 13.9161 22.2042 15.8481C22.4655 17.7784 22.9461 18.9651 23.4672 18.9602C23.9883 18.9651 24.4689 17.7784 24.7303 15.8481C24.99 13.9161 24.99 11.5345 24.7303 9.60258C24.4689 7.67228 23.9883 6.48552 23.4672 6.49039Z" fill="#404040"/>
    </g>
    <defs>
        <clipPath id="clip0_1080_14958">
            <rect width="25" height="25" fill="white" transform="translate(-0.000976562)"/>
        </clipPath>
    </defs>
</svg>
    