<svg width="33" height="26" viewBox="0 0 33 26" fill="none" xmlns="http://www.w3.org/2000/svg">
    <path fill-rule="evenodd" clip-rule="evenodd" d="M21.7356 0.0965471C19.0942 0.557403 17.008 2.42209 16.3095 4.94666C16.1892 5.38151 16.1645 5.63957 16.161 6.49994C16.1586 7.06741 16.1793 7.65365 16.2069 7.80259L16.2571 8.07354L15.8183 8.03471C12.9665 7.78252 10.6581 7.15039 8.36067 5.9925C6.23893 4.92315 4.02816 3.24419 2.6726 1.67265C2.47005 1.43784 2.27533 1.255 2.23985 1.26645C2.20443 1.27783 2.06397 1.53058 1.92767 1.82816C0.997538 3.85849 1.17114 6.20579 2.38626 8.02883C2.74195 8.56241 3.32131 9.19292 3.79207 9.5586L4.282 9.93916H4.01638C3.44829 9.93916 2.26031 9.62957 1.62248 9.31535C1.48112 9.24576 1.34177 9.18879 1.31283 9.18879C1.22139 9.18879 1.34242 10.335 1.49174 10.8831C2.07977 13.0419 3.7391 14.749 5.94288 15.4625C6.30861 15.5809 6.56646 15.6931 6.51589 15.7119C6.22372 15.8201 5.2638 15.8933 4.51822 15.8641L3.68115 15.8312L3.72291 15.9919C3.79401 16.2656 4.27203 17.1425 4.56951 17.5452C5.71404 19.0941 7.58245 20.1579 9.40606 20.299C9.68211 20.3204 9.90791 20.3593 9.90791 20.3854C9.90791 20.4911 8.45638 21.3599 7.5686 21.7856C5.54762 22.7545 3.55054 23.1737 1.19879 23.1225L0 23.0964L0.340218 23.3027C0.835717 23.6031 2.33685 24.3351 3.01159 24.6053C6.64345 26.0595 10.8836 26.3905 14.8861 25.5325C20.7762 24.2697 25.6219 20.3202 28.0692 14.7872C29.1156 12.4213 29.6405 10.0979 29.6942 7.59424L29.7183 6.46868L30.1872 6.10481C30.7867 5.63945 31.4604 5.01933 31.9675 4.4658C32.4012 3.99256 33.036 3.17546 32.9984 3.13907C32.9855 3.12669 32.7896 3.18966 32.563 3.27908C31.7053 3.6175 29.715 4.10512 29.4176 4.04978C29.3441 4.03608 29.3973 3.97499 29.5897 3.85199C30.0784 3.53965 30.9515 2.67578 31.3224 2.13744C31.6445 1.66996 32.1157 0.753501 32.1178 0.590482C32.1183 0.555965 31.7211 0.715795 31.2353 0.945597C30.3573 1.36099 29.212 1.76126 28.3143 1.96642L27.8448 2.07366L27.4522 1.72267C25.9363 0.36737 23.7491 -0.254754 21.7356 0.0965471Z" fill="#346DA1" />
</svg>
    