<svg width="25" height="25" viewBox="0 0 25 25" fill="none" xmlns="http://www.w3.org/2000/svg">
    <g clip-path="url(#clip0_1057_15521)">
        <path fill-rule="evenodd" clip-rule="evenodd" d="M16.4663 2.1565C14.4653 2.50731 12.8849 3.92674 12.3557 5.8485C12.2645 6.17951 12.2458 6.37595 12.2431 7.03088C12.2414 7.46285 12.257 7.9091 12.2779 8.02248L12.3159 8.22873L11.9836 8.19917C9.82311 8.0072 8.0743 7.52601 6.33384 6.64461C4.72647 5.8306 3.05164 4.55254 2.0247 3.35626C1.87125 3.17752 1.72374 3.03834 1.69685 3.04705C1.67002 3.05571 1.56362 3.24811 1.46035 3.47464C0.75571 5.02016 0.88723 6.80697 1.80777 8.1947C2.07723 8.60087 2.51614 9.08082 2.87278 9.35918L3.24394 9.64888H3.04271C2.61234 9.64888 1.71236 9.41321 1.22915 9.17402C1.12206 9.12104 1.01649 9.07768 0.994565 9.07768C0.925298 9.07768 1.01698 9.95019 1.13011 10.3674C1.57559 12.0107 2.83265 13.3102 4.50218 13.8533C4.77925 13.9435 4.97459 14.0289 4.93628 14.0432C4.71494 14.1256 3.98773 14.1813 3.4229 14.159L2.78875 14.134L2.82039 14.2563C2.87425 14.4647 3.23638 15.1322 3.46175 15.4387C4.32882 16.6178 5.74428 17.4276 7.1258 17.535C7.33493 17.5513 7.50599 17.5808 7.50599 17.6007C7.50599 17.6812 6.40635 18.3426 5.73379 18.6666C4.20274 19.4041 2.6898 19.7232 0.908177 19.6843L0 19.6644L0.257741 19.8215C0.633119 20.0501 1.77034 20.6073 2.28151 20.813C5.03292 21.92 8.24517 22.172 11.2773 21.5188C15.7396 20.5576 19.4105 17.5511 21.2645 13.3393C22.0573 11.5383 22.4549 9.76973 22.4956 7.86388L22.5139 7.00708L22.8691 6.7301C23.3233 6.37586 23.8336 5.90381 24.2178 5.48245C24.5463 5.12222 25.0273 4.50023 24.9988 4.47252C24.989 4.4631 24.8406 4.51103 24.6689 4.5791C24.0191 4.83671 22.5114 5.2079 22.2861 5.16577C22.2304 5.15535 22.2707 5.10884 22.4164 5.01521C22.7867 4.77745 23.4481 4.11986 23.7291 3.71007C23.9731 3.35421 24.3301 2.65659 24.3317 2.53249C24.332 2.50622 24.0312 2.62788 23.6631 2.80281C22.998 3.11902 22.1303 3.42371 21.4502 3.57988L21.0946 3.66152L20.7971 3.39434C19.6487 2.36266 17.9917 1.88908 16.4663 2.1565Z" fill="#404040" />
    </g>
    <defs>
        <clipPath id="clip0_1057_15521">
            <rect width="25" height="25" fill="white" />
        </clipPath>
    </defs>
</svg>
    