<svg width="159" height="170" viewBox="0 0 159 170" fill="none"
    xmlns="http://www.w3.org/2000/svg">
    <circle cx="78.9492" cy="87.6348" r="61.5801" fill="url(#paint0_linear_2091_15744)"/>
    <path d="M78.9471 48.1582C71.1398 48.1582 63.5078 50.4733 57.0163 54.8108C50.5247 59.1483 45.4652 65.3134 42.4775 72.5264C39.4898 79.7394 38.708 87.6764 40.2312 95.3337C41.7543 102.991 45.5139 110.025 51.0345 115.545C56.5551 121.066 63.5887 124.825 71.246 126.349C78.9033 127.872 86.8403 127.09 94.0533 124.102C101.266 121.114 107.431 116.055 111.769 109.563C116.106 103.072 118.422 95.4399 118.422 87.6326C118.422 77.1634 114.263 67.1229 106.86 59.72C99.4568 52.3171 89.4164 48.1582 78.9471 48.1582V48.1582ZM78.9471 120.528C72.441 120.528 66.081 118.599 60.6714 114.984C55.2618 111.37 51.0455 106.232 48.5558 100.221C46.066 94.2103 45.4145 87.5961 46.6838 81.2151C47.9531 74.834 51.0861 68.9726 55.6866 64.3721C60.2871 59.7716 66.1485 56.6386 72.5295 55.3693C78.9106 54.1001 85.5248 54.7515 91.5356 57.2413C97.5464 59.7311 102.684 63.9473 106.299 69.3569C109.913 74.7666 111.842 81.1265 111.842 87.6326C111.842 96.357 108.377 104.724 102.208 110.893C96.0385 117.062 87.6715 120.528 78.9471 120.528Z" fill="#CC2D8F"/>
    <path d="M72.3679 96.135L61.5289 85.3124L56.8906 89.9507L72.3679 105.444L101.003 76.7925L96.365 72.1543L72.3679 96.135Z" fill="#CC2D8F"/>
    <path d="M0 102.042L2.53044 99.4785L6.01361 102.917L3.48273 105.48L0 102.042Z" fill="#F48FB1"/>
    <path d="M114.114 169.001L111.318 168.925C111.318 168.925 112.647 161.423 116.947 160.163C117.753 159.929 118.635 159.69 119.522 159.559C120.049 159.478 120.882 159.357 121.292 159.204C121.386 158.497 121.089 157.596 120.756 156.574C120.495 155.782 120.224 154.967 120.08 154.075C119.801 152.337 120.265 150.802 121.386 149.744C122.755 148.461 124.966 148.051 127.46 148.618C128.883 148.942 129.932 149.64 130.855 150.253C132.174 151.131 132.944 151.576 134.556 150.491C136.506 149.176 133.957 144.03 132.602 141.058L137.658 138.951C138.338 140.437 141.621 148.082 139.455 152.445C138.725 153.913 137.469 154.886 135.821 155.25C132.237 156.052 130.139 154.656 128.608 153.638C127.883 153.157 127.248 152.779 126.559 152.58C121.773 151.216 128.455 158.258 125.326 161.423C123.448 163.319 118.86 163.819 118.563 163.891C115.609 164.602 114.114 169.001 114.114 169.001Z" fill="#F48FB1"/>
    <path d="M22.4326 36.8886C20.0552 36.5689 17.6328 34.5518 17.3672 34.3221L19.704 31.5801C20.4109 32.1789 21.9103 33.183 22.9143 33.3181L22.4326 36.8886Z" fill="#FB8C00"/>
    <path d="M83.1339 13.6923C81.1798 12.0533 80.1397 12.346 78.7439 12.9268C76.9429 13.6743 74.1108 14.2281 70.2656 12.9268L71.4228 10.1397C73.7056 10.9097 75.358 10.536 76.7853 9.694C78.6224 8.61338 81.1348 7.13204 85.043 10.4144C86.6729 11.7832 88.3434 12.6927 89.5681 12.2785C90.4596 11.9813 90.9323 10.653 91.171 9.59494C91.1935 9.50039 91.2295 9.23023 91.2565 8.9916C91.4726 7.33916 91.8328 3.77314 94.4894 1.94961C97.3305 8.58794e-07 100.316 0 100.316 0L100.856 5.36704C99.4827 5.16443 98.5281 5.44358 97.7222 5.88934C94.6875 7.57779 97.3305 14.0615 92.6073 16.2407C88.0642 18.3524 84.3496 14.7098 83.1339 13.6923Z" fill="#03A9F4"/>
    <path d="M145.187 36.4257L140.531 34.1429L142.85 30.793L146.502 33.2108L145.187 36.4257Z" fill="#FFC107"/>
    <path d="M155.927 84.4766L158.529 87.4523L155.554 90.0548L152.951 87.079L155.927 84.4766Z" fill="#F44336"/>
    <path d="M37.1074 154.721L40.6262 153.951L41.6424 158.596L38.1236 159.366L37.1074 154.721Z" fill="#FB8C00"/>
    <defs>
        <linearGradient id="paint0_linear_2091_15744" x1="78.9492" y1="-73" x2="78.9492" y2="149.215" gradientUnits="userSpaceOnUse">
            <stop stop-color="#CC2D8F" stop-opacity="0.5"/>
            <stop offset="1" stop-color="#CC2D8F" stop-opacity="0"/>
        </linearGradient>
    </defs>
</svg>
    